<?xml version="1.0" ?><svg fill="none" height="24" viewBox="0 0 24 24" width="24" xmlns="http://www.w3.org/2000/svg"><g id="Discount sign"><path clip-rule="evenodd" d="M4.25 1C4.25 0.585786 4.58579 0.25 5 0.25H19C19.4142 0.25 19.75 0.585786 19.75 1V23C19.75 23.2809 19.593 23.5383 19.3432 23.6669C19.0934 23.7954 18.7927 23.7736 18.5641 23.6103L12 18.9217L5.43593 23.6103C5.20732 23.7736 4.90662 23.7954 4.65681 23.6669C4.40701 23.5383 4.25 23.2809 4.25 23V1ZM5.75 1.75V21.5426L11.5641 17.3897C11.8248 17.2034 12.1752 17.2034 12.4359 17.3897L18.25 21.5426V1.75H5.75Z" fill="black" fill-rule="evenodd" id="Rectangle 40 (Stroke)"/><path clip-rule="evenodd" d="M17.0156 5.22705C17.3085 5.51994 17.3085 5.99481 17.0156 6.28771L8.53032 14.773C8.23743 15.0659 7.76256 15.0659 7.46966 14.773C7.17677 14.4801 7.17677 14.0052 7.46966 13.7123L15.9549 5.22705C16.2478 4.93415 16.7227 4.93415 17.0156 5.22705Z" fill="black" fill-rule="evenodd" id="Vector 67 (Stroke)"/><path clip-rule="evenodd" d="M7.49263 6C7.49263 5.0335 8.27613 4.25 9.24263 4.25C10.2091 4.25 10.9926 5.0335 10.9926 6V7C10.9926 7.9665 10.2091 8.75 9.24263 8.75C8.27613 8.75 7.49263 7.9665 7.49263 7V6ZM9.24263 5.75C9.10456 5.75 8.99263 5.86193 8.99263 6V7C8.99263 7.13807 9.10456 7.25 9.24263 7.25C9.3807 7.25 9.49263 7.13807 9.49263 7V6C9.49263 5.86193 9.3807 5.75 9.24263 5.75Z" fill="black" fill-rule="evenodd" id="Rectangle 38 (Stroke)"/><path clip-rule="evenodd" d="M13.4926 12C13.4926 11.0335 14.2761 10.25 15.2426 10.25C16.2091 10.25 16.9926 11.0335 16.9926 12V13C16.9926 13.9665 16.2091 14.75 15.2426 14.75C14.2761 14.75 13.4926 13.9665 13.4926 13V12ZM15.2426 11.75C15.1046 11.75 14.9926 11.8619 14.9926 12V13C14.9926 13.1381 15.1046 13.25 15.2426 13.25C15.3807 13.25 15.4926 13.1381 15.4926 13V12C15.4926 11.8619 15.3807 11.75 15.2426 11.75Z" fill="black" fill-rule="evenodd" id="Rectangle 39 (Stroke)"/></g></svg>