<svg version="1.2" xmlns="http://www.w3.org/2000/svg" viewBox="0 0 100 100" width="100" height="100"><style>.a{fill:none}.b{fill:none;stroke:#000;stroke-linecap:round;stroke-linejoin:round;stroke-width:9.1}.c{stroke:#000;stroke-linecap:round;stroke-linejoin:round;stroke-width:9.1}</style><path class="a" d="m-21.1-9.1h109.1v109.1h-109.1z"/><path class="b" d="m31.8 59.1l27.3-27.3"/><path class="c" d="m34.1 36.3c-1.3 0-2.3-1-2.3-2.2 0-1.3 1-2.3 2.3-2.3 1.2 0 2.2 1 2.2 2.3 0 1.2-1 2.2-2.2 2.2z"/><path class="c" d="m56.8 59.1c-1.2 0-2.2-1-2.2-2.3 0-1.2 1-2.2 2.2-2.2 1.3 0 2.3 1 2.3 2.2 0 1.3-1 2.3-2.3 2.3z"/><path class="b" d="m13.7 23.7q0-1.9 0.9-3.7 0.4-1.8 1.7-3.7 1.9-1.3 3.7-1.7 1.8-0.9 3.7-0.9h4.5q0.9 0 1.8 0 0.9-0.5 1.8-1 1 0 1.9-0.9 0.9-0.5 1.3-0.9l3.2-3.1q1.8-1.9 3.6-2.4 1.9-0.8 3.6-0.8 1.9 0 4.2 0.8 1.7 0.5 3.1 2.4l3.2 3.1q0.4 0.4 1.3 0.9 1 0.9 1.9 1 0.9 0.4 1.8 0.9 0.9 0 1.8 0h4.5q2.4 0 4.1 0.9 1.9 0.4 3.3 1.7 1.3 1.9 2.2 3.7 0.4 1.8 0.4 3.7v4.5q0 0.9 0.5 1.8 0 0.9 0.5 1.8 0.5 1 0.9 1.9 0.5 0.9 1.3 1.7l3.3 2.8q1.3 1.8 1.7 3.6 0.9 1.9 0.9 3.6 0 1.9-0.9 4.2-0.4 1.7-1.7 3.2l-3.3 3.1q-0.8 0.4-1.3 1.4-0.4 0.9-0.9 1.8-0.5 0.9-0.5 1.8-0.5 0.9-0.5 1.9v4.5q0 2.3-0.4 4-0.9 1.9-2.2 3.3-1.4 1.3-3.3 2.2-1.7 0.5-4.1 0.5h-4.5q-0.9 0-1.8 0.5-0.9 0-1.8 0.4-0.9 0.5-1.9 0.9-0.9 0.5-1.3 1.3l-3.2 3.3q-1.4 1.3-3.1 1.7-2.4 0.9-4.2 0.9-1.7 0-3.6-0.9-1.8-0.4-3.6-1.7l-3.2-3.3q-0.4-0.8-1.3-1.3-0.9-0.4-1.9-0.9-0.9-0.4-1.8-0.4-0.9-0.5-1.8-0.5h-4.5q-1.9 0-3.7-0.5-1.8-0.9-3.7-2.2-1.3-1.4-1.7-3.3-0.9-1.7-0.9-4v-4.5q0-1 0-1.9-0.5-0.9-1-1.8 0-0.9-0.9-1.8-0.5-1-0.9-1.4l-3.1-3.1q-1.9-1.5-2.4-3.2-0.8-2.3-0.8-4.2 0-1.7 0.8-3.6 0.5-1.8 2.4-3.6l3.1-3.2q0.4-0.4 0.9-1.3 0.9-0.9 1-1.9 0.4-0.9 0.9-1.8 0-0.9 0-1.8z"/></svg>