<svg version="1.2" xmlns="http://www.w3.org/2000/svg" viewBox="0 0 22 22" width="22" height="22"><style>.a{fill:none}.b{fill:none;stroke:#000;stroke-linecap:round;stroke-linejoin:round;stroke-width:2}.c{stroke:#000;stroke-linecap:round;stroke-linejoin:round;stroke-width:2}</style><path class="a" d="m-2-2h24v24h-24z"/><path class="b" d="m7 13l6-6"/><path class="c" d="m7.5 8c-0.3 0-0.5-0.2-0.5-0.5 0-0.3 0.2-0.5 0.5-0.5 0.3 0 0.5 0.2 0.5 0.5 0 0.3-0.2 0.5-0.5 0.5z"/><path class="c" d="m12.5 13c-0.3 0-0.5-0.2-0.5-0.5 0-0.3 0.2-0.5 0.5-0.5 0.3 0 0.5 0.2 0.5 0.5 0 0.3-0.2 0.5-0.5 0.5z"/><path class="b" d="m3 5.2q0-0.4 0.2-0.8 0.1-0.4 0.4-0.8 0.4-0.3 0.8-0.4 0.4-0.2 0.8-0.2h1q0.2 0 0.4 0 0.2-0.1 0.4-0.2 0.2 0 0.4-0.2 0.2-0.1 0.3-0.2l0.7-0.7q0.4-0.4 0.8-0.5 0.4-0.2 0.8-0.2 0.4 0 0.9 0.2 0.4 0.1 0.7 0.5l0.7 0.7q0.1 0.1 0.3 0.2 0.2 0.2 0.4 0.2 0.2 0.1 0.4 0.2 0.2 0 0.4 0h1q0.5 0 0.9 0.2 0.4 0.1 0.7 0.4 0.3 0.4 0.5 0.8 0.1 0.4 0.1 0.8v1q0 0.2 0.1 0.4 0 0.2 0.1 0.4 0.1 0.2 0.2 0.4 0.1 0.2 0.3 0.4l0.7 0.6q0.3 0.4 0.4 0.8 0.2 0.4 0.2 0.8 0 0.4-0.2 0.9-0.1 0.4-0.4 0.7l-0.7 0.7q-0.2 0.1-0.3 0.3-0.1 0.2-0.2 0.4-0.1 0.2-0.1 0.4-0.1 0.2-0.1 0.4v1q0 0.5-0.1 0.9-0.2 0.4-0.5 0.7-0.3 0.3-0.7 0.5-0.4 0.1-0.9 0.1h-1q-0.2 0-0.4 0.1-0.2 0-0.4 0.1-0.2 0.1-0.4 0.2-0.2 0.1-0.3 0.3l-0.7 0.7q-0.3 0.3-0.7 0.4-0.5 0.2-0.9 0.2-0.4 0-0.8-0.2-0.4-0.1-0.8-0.4l-0.7-0.7q-0.1-0.2-0.3-0.3-0.2-0.1-0.4-0.2-0.2-0.1-0.4-0.1-0.2-0.1-0.4-0.1h-1q-0.4 0-0.8-0.1-0.4-0.2-0.8-0.5-0.3-0.3-0.4-0.7-0.2-0.4-0.2-0.9v-1q0-0.2 0-0.4-0.1-0.2-0.2-0.4 0-0.2-0.2-0.4-0.1-0.2-0.2-0.3l-0.7-0.7q-0.4-0.3-0.5-0.7-0.2-0.5-0.2-0.9 0-0.4 0.2-0.8 0.1-0.4 0.5-0.8l0.7-0.7q0.1-0.1 0.2-0.3 0.2-0.2 0.2-0.4 0.1-0.2 0.2-0.4 0-0.2 0-0.4z"/></svg>