<svg version="1.2" xmlns="http://www.w3.org/2000/svg" viewBox="0 0 120 120" width="120" height="120"><style></style><path fill-rule="evenodd" d="m100 40l15 20v25h-10c0 8.3-6.7 15-15 15-8.3 0-15-6.7-15-15h-30c0 8.3-6.7 15-15 15-8.3 0-15-6.7-15-15h-10v-55c0-5.6 4.4-10 10-10h70v20zm-2.5 7.5h-12.5v12.5h22.3zm-60 37.5c0-4.1-3.4-7.5-7.5-7.5-4.1 0-7.5 3.4-7.5 7.5 0 4.1 3.4 7.5 7.5 7.5 4.1 0 7.5-3.4 7.5-7.5zm60 0c0-4.1-3.4-7.5-7.5-7.5-4.1 0-7.5 3.4-7.5 7.5 0 4.1 3.4 7.5 7.5 7.5 4.1 0 7.5-3.4 7.5-7.5zm-82.5-55v45h3.8c2.8-3 6.8-5 11.2-5 4.5 0 8.5 2 11.2 5h33.8v-45zm35 5l17.5 17.5-17.5 17.5v-12.5h-25v-10h25z"/></svg>