<svg version="1.2" xmlns="http://www.w3.org/2000/svg" viewBox="0 0 120 120" width="120" height="120"><style></style><path  d="m113.2 33.4q0.2 0.1 0.4 0.3 0.2 0.2 0.3 0.5 0.1 0.2 0.1 0.5v26.3q0 0.3-0.1 0.5-0.1 0.3-0.3 0.4-0.2 0.2-0.4 0.3-0.3 0.1-0.5 0.1h-4.4c-1.1 1.6-4 5.4-9.3 7v19.8q0 1.1-0.4 2.2-0.5 1.1-1.3 1.9-0.8 0.8-1.9 1.3-1.1 0.4-2.3 0.4h-82.1c-0.3 0-0.7-0.1-0.9-0.3-0.3-0.3-0.5-0.6-0.5-1 0-0.4 0.2-0.7 0.5-1 0.2-0.2 0.6-0.4 0.9-0.4h7.5q-0.3-0.3-0.4-0.7-0.2-0.4-0.3-0.8-0.1-0.4-0.2-0.8-0.1-0.4-0.1-0.8v-1.3c0.1-0.3 0.2-0.7 0.5-0.9 0.2-0.2 0.5-0.4 0.9-0.4 0.3 0 0.7 0.2 0.9 0.4 0.3 0.2 0.4 0.6 0.4 0.9v1.3q0 0.6 0.3 1.2 0.2 0.6 0.7 1 0.4 0.5 1 0.7 0.6 0.2 1.2 0.2h69.7q0.7 0 1.2-0.2 0.6-0.2 1.1-0.7 0.4-0.4 0.7-1 0.2-0.6 0.2-1.2v-5.6h-89c-0.3 0-0.6-0.2-0.9-0.4-0.2-0.3-0.3-0.6-0.3-1 0-0.3 0.1-0.7 0.3-0.9 0.3-0.3 0.6-0.4 0.9-0.4h10.2v-10.1q0-0.2 0.1-0.5 0.1-0.2 0.3-0.4 0.2-0.2 0.5-0.3 0.2-0.1 0.5-0.1h72.8c0.4 0 0.7 0.1 1 0.4 0.3 0.2 0.4 0.6 0.4 0.9 0 0.4-0.1 0.7-0.4 1-0.3 0.3-0.6 0.4-1 0.4h-71.5v8.7h76.1v-20q-0.3 0.1-0.6 0.1-0.3 0.1-0.6 0.1-0.3 0.1-0.6 0.1-0.4 0-0.7 0c-8.8 0-12.5-5.2-13.7-7.3h-12.3c-1.7 0-3.3-0.7-4.5-1.9-1.2-1.2-1.8-2.9-1.8-4.6 0-1.7 0.6-3.3 1.8-4.5 1.2-1.2 2.8-1.9 4.5-1.9h15.7c0.4-0.1 0.8 0.1 1 0.3 0.3 0.3 0.4 0.6 0.4 1 0 0.4-0.1 0.7-0.4 1-0.2 0.2-0.6 0.4-1 0.3h-15.7c-1 0.1-1.9 0.5-2.6 1.2-0.7 0.7-1.1 1.6-1.1 2.6 0 1 0.4 2 1.1 2.7 0.7 0.7 1.6 1.1 2.6 1.1h13.2q0.2 0 0.4 0.1 0.2 0 0.3 0.2 0.2 0.1 0.3 0.2 0.2 0.2 0.2 0.4c0.1 0.2 2.7 6.5 11.6 6.5 0 0 6.7-0.3 9.4-5.4 0.1-0.3 0.4-0.5 0.8-0.6 0.3-0.1 0.7-0.1 1 0.1 0.3 0.1 0.5 0.4 0.6 0.7 0.1 0.4 0.1 0.7 0 1.1-1.7 3-4.3 4.7-6.6 5.6v6.4c5-1.7 7.3-6 7.3-6q0.1-0.2 0.2-0.3 0.1-0.2 0.3-0.3 0.2-0.1 0.3-0.1 0.2-0.1 0.4-0.1h3.8v-23.6h-11.5q-0.1 0-0.1 0-0.1 0-0.1 0-0.1 0-0.1 0-0.1 0-0.1 0l-24-7.9q-0.8-0.2-1.6-0.3-0.9-0.1-1.7 0-0.8 0.1-1.6 0.4-0.7 0.3-1.4 0.7l-14.9 9.6c-0.3 0.2-0.6 0.2-1 0.1-0.3-0.1-0.6-0.3-0.8-0.6-0.2-0.3-0.2-0.6-0.2-0.9 0.1-0.4 0.3-0.7 0.6-0.9l14.8-9.5q1-0.6 2-1 1.1-0.4 2.2-0.5 1.1-0.2 2.2-0.1 1.1 0.1 2.2 0.5l23.8 7.7h12.6q0.3 0 0.6 0.1z"/><path  d="m18 44.5q0.4-1.1 1.3-1.9 0.8-0.9 1.9-1.3 1-0.4 2.2-0.4h35.2c0.3 0 0.7 0.1 0.9 0.4 0.2 0.2 0.4 0.5 0.4 0.9 0 0.3-0.2 0.7-0.4 0.9-0.2 0.3-0.6 0.4-0.9 0.4h-35.2q-0.6 0-1.2 0.3-0.6 0.2-1 0.7-0.5 0.4-0.7 1-0.3 0.6-0.3 1.2v0.5c0 0.4-0.1 0.7-0.4 1-0.2 0.2-0.6 0.3-0.9 0.3-0.4 0-0.7-0.1-0.9-0.3-0.3-0.3-0.4-0.6-0.5-1v-0.5q0-1.1 0.5-2.2z"/><path  d="m62.7 63.6c-0.3 0-0.7-0.2-0.9-0.4-0.3-0.3-0.4-0.6-0.4-1 0-0.3 0.1-0.6 0.4-0.9 0.2-0.2 0.6-0.4 0.9-0.4h17.3c0.4 0 0.7 0.2 0.9 0.4 0.3 0.3 0.4 0.6 0.4 0.9 0 0.4-0.1 0.7-0.4 1-0.2 0.2-0.5 0.4-0.9 0.4z"/><path  d="m57.7 61.5q0 0.1 0.1 0.1 0 0 0 0.1 0 0 0 0 0 0.1 0 0.1 0.1 0 0.1 0 0 0.1 0 0.1 0 0 0 0.1 0 0 0 0 0 0.1 0 0.1 0 0 0 0.1 0 0 0 0 0 0.1 0 0.1 0 0 0 0.1 0 0 0 0 0 0.1 0 0.1 0 0 0 0.1 0 0 0 0 0 0.1-0.1 0.1 0 0 0 0.1 0 0 0 0 0 0 0 0.1-0.1 0-0.1 0 0 0.1 0 0.1 0 0 0 0-0.1 0.1-0.1 0.1 0 0 0 0 0 0.1-0.1 0.1 0 0 0 0 0 0.1-0.1 0.1 0 0 0 0 0 0-0.1 0.1 0 0 0 0-0.1 0-0.1 0 0 0 0 0.1-0.1 0-0.1 0 0 0-0.1 0 0 0 0 0-0.1 0-0.1 0 0 0.1-0.1 0.1 0 0 0 0-0.1 0-0.1 0 0 0-0.1 0 0 0 0 0-0.1 0-0.1 0 0 0-0.1 0 0 0 0 0-0.1 0-0.1 0 0 0-0.1-0.1 0 0 0 0 0 0-0.1 0 0 0 0 0-0.1 0-0.1 0 0-0.1-0.1-0.1 0 0 0 0 0 0-0.1 0 0-0.1 0-0.1-0.1 0-0.1 0 0 0 0-0.1-0.1 0-0.1 0 0 0 0-0.1 0 0-0.1 0 0 0 0-0.1 0 0 0 0-0.1 0-0.1-0.1 0 0 0 0 0-0.1 0-0.1-0.1 0-0.1 0 0-0.1 0-0.1 0 0 0-0.1 0 0 0 0 0-0.1 0-0.1 0 0-0.1-0.1 0 0 0 0 0-0.1 0-0.1 0 0 0-0.1 0 0 0 0 0-0.1 0-0.1 0 0 0-0.1 0.1 0 0.1 0 0-0.1 0-0.1 0 0 0-0.1 0 0 0 0 0 0 0-0.1 0 0 0.1 0 0-0.1 0-0.1 0 0 0-0.1 0 0 0.1 0 0 0 0-0.1 0 0 0 0 0.1 0 0.1-0.1 0 0 0 0 0 0 0.1-0.1 0 0 0 0 0 0 0.1 0 0-0.1 0-0.1 0.1 0 0.1 0 0 0 0 0 0.1-0.1 0.1-0.1 0 0 0.1 0 0 0 0 0 0.1 0 0.1 0 0-0.1 0-0.1 0.1 0 0.1 0 0.2 0 0.3 0 0.2 0 0.4 0.1 0.1 0 0.3 0.1 0.1 0.1 0.2 0.2 0.1 0 0.1 0 0 0.1 0 0.1 0 0 0.1 0 0 0.1 0 0.1 0 0 0 0z"/><path  d="m51.9 61.5q0 0.1 0 0.1 0 0 0 0.1 0.1 0 0.1 0 0 0.1 0 0.1 0 0 0 0 0 0.1 0 0.1 0 0 0 0.1 0 0 0.1 0 0 0.1 0 0.1 0 0 0 0.1 0 0 0 0 0 0.1 0 0.1 0 0 0 0.1 0 0 0 0-0.1 0.1-0.1 0.1 0 0 0 0.1 0 0 0 0 0 0.1 0 0.1 0 0 0 0.1 0 0-0.1 0 0 0 0 0.1 0 0 0 0 0 0.1-0.1 0.1 0 0 0 0 0 0.1 0 0.1-0.1 0-0.1 0 0 0.1 0 0.1 0 0-0.1 0 0 0.1 0 0.1 0 0-0.1 0 0 0 0 0.1-0.1 0-0.1 0-0.1 0.1-0.2 0.1 0 0-0.1 0 0 0-0.1 0.1-0.1 0-0.1 0-0.1 0-0.2 0 0 0-0.1 0-0.1 0-0.1 0-0.1 0-0.1-0.1 0 0-0.1 0 0 0 0 0-0.1 0-0.1 0 0 0 0 0-0.1-0.1-0.1-0.1 0 0-0.1 0 0 0 0 0 0-0.1-0.1-0.1 0 0 0 0-0.1 0-0.1-0.1 0 0 0 0 0 0-0.1-0.1 0 0 0 0 0 0-0.1-0.1 0 0 0 0 0 0 0-0.1 0 0-0.1 0 0-0.1 0-0.1 0 0 0 0 0-0.1 0-0.1 0 0-0.1-0.1 0 0 0 0 0-0.1 0-0.1 0 0 0-0.1 0 0 0 0 0-0.1 0-0.1 0 0 0-0.1 0 0 0 0 0-0.1 0-0.1 0 0 0-0.1 0 0 0 0 0-0.1 0-0.1 0 0 0-0.1 0.1 0 0.1 0 0 0 0-0.1 0 0 0 0 0-0.1 0-0.1 0.1 0 0.1-0.1 0 0 0 0 0 0 0-0.1 0.1 0 0.1 0 0 0 0-0.1 0.1 0 0.1 0 0 0 0-0.1 0 0 0.1 0 0 0 0 0 0.1-0.1 0.1-0.1 0 0 0 0 0.1 0 0.1 0 0-0.1 0.1-0.1 0 0 0 0 0 0 0.1 0 0 0 0 0 0.1-0.1 0.1-0.1 0 0 0.1 0 0.1 0 0.3 0 0.2 0 0.3 0.1 0.2 0 0.3 0.1 0.2 0.1 0.3 0.2 0 0 0 0 0 0.1 0.1 0.1 0 0 0 0 0 0.1 0 0.1 0.1 0 0.1 0z"/><path  d="m46 61.5q0 0.1 0 0.1 0.1 0 0.1 0.1 0 0 0 0 0 0.1 0 0.1 0 0 0 0 0 0.1 0.1 0.1 0 0 0 0.1 0 0 0 0 0 0.1 0 0.1 0 0 0 0.1 0 0 0 0 0 0.1 0 0.1 0 0 0 0.1 0 0 0 0 0 0.1 0 0.1 0 0 0 0.1-0.1 0-0.1 0 0 0.1 0 0.1 0 0 0 0.1 0 0 0 0 0 0-0.1 0.1 0 0 0 0 0 0.1 0 0.1 0 0-0.1 0 0 0.1 0 0.1 0 0-0.1 0 0 0.1 0 0.1-0.2 0.2-0.4 0.3-0.3 0.1-0.5 0.1-0.3 0-0.6-0.1-0.2-0.1-0.4-0.3 0 0 0-0.1-0.1 0-0.1 0 0 0 0-0.1 0 0-0.1 0 0 0 0-0.1 0 0 0 0 0-0.1-0.1-0.1 0 0 0 0 0-0.1 0-0.1 0 0 0-0.1 0 0 0 0-0.1-0.1-0.1-0.1 0 0 0-0.1 0 0 0 0 0-0.1 0-0.1 0 0 0-0.1 0 0 0 0 0-0.1 0-0.1 0 0 0-0.1 0 0 0 0 0-0.1 0-0.1 0.1 0 0.1-0.1 0 0 0 0 0 0 0-0.1 0 0 0 0 0.1-0.1 0.1-0.1 0 0 0-0.1 0 0 0 0 0.1 0 0.1-0.1 0 0 0 0 0 0 0.1-0.1 0 0 0 0 0.1-0.1 0.3-0.2 0.1-0.1 0.3-0.1 0.1-0.1 0.3-0.1 0.2 0 0.3 0 0 0 0.1 0 0 0 0 0.1 0.1 0 0.1 0 0 0 0.1 0 0 0 0 0 0.1 0 0.1 0.1 0 0 0 0 0.1 0 0.1 0 0 0 0.1 0.1 0 0 0 0 0 0 0.1 0 0 0.1 0 0.1 0 0 0.1 0 0 0.1 0 0.1 0 0 0 0 0.1 0.1 0.1 0.1 0 0 0 0z"/><path  d="m8.1 52.2q0.1-0.3 0.3-0.5 0.2-0.2 0.5-0.3 0.2-0.1 0.5-0.1h20.6c0.4 0 0.8 0.2 1 0.4 0.3 0.3 0.4 0.6 0.4 1 0 0.4-0.1 0.7-0.4 1-0.2 0.2-0.6 0.3-1 0.3h-9.8v10.4c0 0.3-0.1 0.7-0.4 0.9-0.2 0.3-0.6 0.4-0.9 0.4-0.4 0-0.7-0.1-0.9-0.4-0.3-0.2-0.4-0.6-0.5-0.9v-10.4h-8.1q-0.3 0-0.5-0.1-0.3-0.1-0.5-0.3-0.2-0.2-0.3-0.4-0.1-0.2-0.1-0.5 0-0.3 0.1-0.5z"/></svg>